<?xml version="1.0" encoding="UTF-8"?>
<svg id="Layer_2" data-name="Layer 2" xmlns="http://www.w3.org/2000/svg" xmlns:xlink="http://www.w3.org/1999/xlink" viewBox="0 0 1616 311.97">
  <defs>
    <style>
      .cls-1 {
        fill: url(#linear-gradient-2);
      }

      .cls-2 {
        fill: url(#linear-gradient-4);
      }

      .cls-3 {
        fill: url(#linear-gradient-3);
      }

      .cls-4 {
        fill: url(#linear-gradient-5);
      }

      .cls-5 {
        fill: url(#linear-gradient);
      }
    </style>
    <linearGradient id="linear-gradient" x1="459.01" y1="64.94" x2="459.01" y2="230.72" gradientUnits="userSpaceOnUse">
      <stop offset="0" stop-color="#f63"/>
      <stop offset="1" stop-color="#f44f2f"/>
    </linearGradient>
    <linearGradient id="linear-gradient-2" x1="637.27" y1="64.94" x2="637.27" y2="230.72" xlink:href="#linear-gradient"/>
    <linearGradient id="linear-gradient-3" x1="808.12" y1="64.94" x2="808.12" y2="230.63" xlink:href="#linear-gradient"/>
    <linearGradient id="linear-gradient-4" x1="987.63" y1="64.94" x2="987.63" y2="230.72" xlink:href="#linear-gradient"/>
    <linearGradient id="linear-gradient-5" x1="155.99" y1="8.55" x2="155.99" y2="319.86" xlink:href="#linear-gradient"/>
  </defs>
  <g id="Layer_1-2" data-name="Layer 1">
    <g>
      <g>
        <polygon class="cls-5" points="438.17 256.41 438.17 95.36 383.6 95.36 383.6 55.83 534.42 55.83 534.42 95.36 479.85 95.36 479.85 256.41 438.17 256.41"/>
        <path class="cls-1" d="M665.56,256.41l-50.56-73.57h-13.96v73.57h-41.41V55.83h73.67c13.34,0,25.22,2.79,35.32,8.3,10.49,5.7,18.52,13.38,23.88,22.8,5.7,9.93,8.59,21.01,8.59,32.95,0,12.95-4.22,24.77-12.53,35.11-7.92,9.68-17.82,16.83-29.46,21.29l55.81,80.14h-49.35ZM633.03,144.38c7.69,0,13.92-2.34,19.06-7.15,4.91-4.75,7.31-10.61,7.31-17.89s-2.24-12.65-6.86-17.43c-4.78-4.94-10.99-7.34-18.98-7.34h-32.53v49.81h32Z"/>
        <path class="cls-3" d="M807.99,260.69c-16.02,0-29.9-3.34-41.26-9.93-11.38-6.61-20.59-16.54-27.35-29.53-6.38-12.21-9.62-27.41-9.62-45.18V55.83h41.14v122.36c0,13.3,3.24,23.89,9.64,31.46,6.56,7.74,15.54,11.51,27.44,11.51s20.88-3.77,27.45-11.51c6.56-7.91,9.9-18.5,9.9-31.45V55.83h41.14v120.22c0,16.51-3.23,31.34-9.6,44.08-6.41,12.64-15.6,22.66-27.32,29.8-11.72,7.14-25.71,10.76-41.56,10.76Z"/>
        <polygon class="cls-2" points="923.18 256.41 923.18 55.83 1052.07 55.83 1052.07 95.36 964.59 95.36 964.59 136.35 1043.24 136.35 1043.24 175.89 964.59 175.89 964.59 216.87 1052.07 216.87 1052.07 256.41 923.18 256.41"/>
        <path d="M1216.5,256.41l-16.32-46.82h-71.98l-16.32,46.82h-45.77l75.25-200.58h45.65l75.25,200.58h-45.77ZM1186.56,171.13l-16.35-46.28-5.91-20-6.14,20.01-16.6,46.27h45Z"/>
        <path d="M1283.26,256.41V55.83h68.59c20.61,0,38.88,4.23,54.3,12.58,15.47,8.56,27.64,20.45,36.19,35.37,8.37,14.92,12.6,32.48,12.6,52.21s-4.24,37.56-12.59,52.46c-8.56,15.12-20.74,27.02-36.2,35.39-15.42,8.35-33.69,12.58-54.31,12.58h-68.59ZM1350.25,216.87c20.33,0,36.09-5.45,46.83-16.2,10.57-10.57,15.93-25.61,15.93-44.69s-5.36-33.85-15.93-44.43c-10.75-10.75-26.5-16.2-46.83-16.2h-25.58v121.51h25.58Z"/>
        <path d="M1546.61,260.69c-17.71,0-33.46-5.01-46.81-14.89-13.35-9.88-22.9-24.04-28.37-42.09l-.6-1.97,39.07-15.63.63,2.48c2.55,10.05,7.01,18.05,13.25,23.78,6.32,5.82,14.08,8.77,23.09,8.77,7.53,0,14.22-1.94,19.87-5.77,5.28-3.52,7.84-8.51,7.84-15.26s-2.44-12.13-7.46-16.18c-5.5-4.47-15.37-9.39-29.34-14.63l-12-4.27c-12.74-4.37-23.83-11.3-32.95-20.61-9.48-9.85-14.29-21.9-14.29-35.81,0-10.74,2.82-20.51,8.39-29.05,5.54-8.67,13.4-15.6,23.35-20.58,10.26-5.13,21.67-7.73,33.91-7.73,18.1,0,32.71,4.4,43.41,13.07,10.46,8.63,17.72,18.78,21.58,30.18l.67,1.98-36.51,15.39-.78-2.28c-1.99-5.79-5.34-10.57-9.96-14.21-4.75-3.77-10.76-5.67-17.87-5.67-7.67,0-13.88,1.74-18.45,5.17-4.63,3.35-6.86,7.57-6.86,12.92s2.1,9.59,6.43,13.27c4.91,4.07,12.86,7.98,23.61,11.62l12.28,4c17.61,6.17,31.05,14.11,40,23.6,9.46,10.01,14.26,23.22,14.26,39.26,0,13.46-3.48,24.89-10.35,33.99-7.18,9.39-16.04,16.29-26.35,20.52-10.57,4.37-21.57,6.59-32.69,6.59Z"/>
      </g>
      <path class="cls-4" d="M239.31,163.74c12.33-41.79,40.89-101.19,72.66-137.44h0c-54.69,49.11-121.74,126.83-157.92,234.33C113.36,152.11,62.98,103.67,45.54,115.29c0,0,17.44-38.75,44.57-38.75s48.44,32.94,62.01,81.38C174.6,117.94,235.75,48.17,293.5,0H93.22C41.73,0,0,41.73,0,93.22v128.84c0,49.66,40.26,89.92,89.92,89.92h128.84c51.48,0,93.22-41.73,93.22-93.22V88.69c-21.09,15.25-47.5,39.1-72.66,75.05Z"/>
    </g>
  </g>
</svg>